# xmcd
#
# Track frame offsets:
#	150
#	24192
#	48801
#	65050
#	83161
#	118379
#	131015
#	156365
#	173906
#	187970
#	212575
#
# Disc length: 3248 seconds
#
# Revision: 1
# Processed by: cddbd v1.5.1PL2 Copyright (c) Steve Scherf et al.
# Submitted via: audiograbber 1.83.01
#
DISCID=940cae0b
DTITLE=Pera Joe Blues Band - Live at Crossroads Nights
DYEAR=2005
DGENRE=Blues
TTITLE0=Congo Square
TTITLE1=I Don't Believe
TTITLE2=Tired Of Talkin'
TTITLE3=Wasn't That Good
TTITLE4=Litle By Little
TTITLE5=Don't Worry Baby
TTITLE6=Hoochie Coochie Man
TTITLE7=Lawdy Lawdy Miss Mary
TTITLE8=Sneakin' Around
TTITLE9=Woke Up This Morning
TTITLE10=On The Road Again
EXTD=Live at Dom Omladine Club, Belgrade, 30.10.2003
EXTT0=
EXTT1=
EXTT2=
EXTT3=
EXTT4=
EXTT5=
EXTT6=
EXTT7=
EXTT8=
EXTT9=
EXTT10=
PLAYORDER=
